<?xml version="1.0" encoding="utf-8"?>
<!-- Generator: Adobe Illustrator 27.2.0, SVG Export Plug-In . SVG Version: 6.00 Build 0)  -->
<svg version="1.1" id="Layer_1" xmlns="http://www.w3.org/2000/svg" xmlns:xlink="http://www.w3.org/1999/xlink" x="0px" y="0px"
	 viewBox="0 0 120 60" style="enable-background:new 0 0 120 60;" xml:space="preserve">
<style type="text/css">
	.st0{fill-rule:evenodd;clip-rule:evenodd;fill:#FF9900;}
	.st1{fill:#FFFFFF;stroke:#FFFFFF;stroke-width:0.213;}
	.st2{fill-rule:evenodd;clip-rule:evenodd;fill:#FFFFFF;}
</style>
<path class="st0" d="M15.9,42.6v-8.8l6,2.1v9L15.9,42.6z M29,42.6v-8.8l-6,2.1v9L29,42.6z M22.6,31.4l5.7,1.8l-5.7,1.9l-6.1-2
	L22.6,31.4z M8.7,30.3v-8.9l6,2.1v9L8.7,30.3z M21.9,30.3v-8.9l-6,2.1v9L21.9,30.3z M15.4,19l5.7,1.8l-5.7,1.9l-6.1-2L15.4,19z
	 M22.8,30.3v-8.9l6,2.1v9L22.8,30.3z M35.9,30.3v-8.9l-6,2.1v9L35.9,30.3z M29.5,19l5.7,1.8l-5.7,1.9l-6.1-2L29.5,19z M30,17.9V9.1
	l6,2.1v9L30,17.9z M43.1,17.9V9.1l-6,2.1v9L43.1,17.9z M36.7,6.7l5.7,1.8l-5.7,1.9l-6.1-2L36.7,6.7z M44,17.9V9.1l6,2.1v9L44,17.9z
	 M57.2,17.9V9.1l-6,2.1v9L57.2,17.9z M50.8,6.7l5.7,1.8l-5.7,1.9l-6.1-2L50.8,6.7z"/>
<path class="st1" d="M47,39l-2,7h-0.9l-1.6-5.2L41,46.1h-0.9L38,39h1.1l1.5,5.2l1.5-5.2h0.8l1.6,5.3l1.6-5.3H47L47,39z M52.6,44
	l1,0.2c-0.2,0.6-0.6,1.1-1.1,1.5c-0.5,0.4-1.2,0.6-1.9,0.6c-1,0-1.7-0.3-2.3-1s-0.9-1.6-0.9-2.7c0-1.1,0.3-2,0.9-2.7
	c0.6-0.7,1.4-1.1,2.3-1c0.9,0,1.7,0.3,2.2,1s0.8,1.6,0.9,2.9h-5.1c0,1.1,0.2,1.8,0.7,2.2s0.9,0.6,1.4,0.6
	C51.6,45.3,52.2,44.9,52.6,44L52.6,44z M52.5,41.8c0-0.4-0.1-0.7-0.2-1.1S52,40.2,51.7,40s-0.6-0.3-1-0.3c-0.5,0-1,0.2-1.4,0.6
	c-0.4,0.4-0.6,0.9-0.6,1.6L52.5,41.8L52.5,41.8z M55.7,46.1h-0.5v-9.5h1.1v3.6c0.5-0.9,1.2-1.4,2.1-1.4c0.8,0,1.5,0.3,2,1
	s0.8,1.6,0.8,2.8c0,1-0.3,1.9-0.8,2.6s-1.2,1.1-2.1,1.1c-1,0-1.7-0.5-2.2-1.4L55.7,46.1L55.7,46.1z M56.3,43.3
	c0,0.7,0.3,1.2,0.7,1.6s0.8,0.5,1.2,0.5c0.6,0,1-0.2,1.3-0.7s0.5-1.1,0.5-2c0-0.9-0.2-1.6-0.5-2.1s-0.8-0.8-1.4-0.8
	c-0.5,0-0.9,0.2-1.2,0.6s-0.6,0.8-0.7,1.4L56.3,43.3L56.3,43.3z M64,44.2l1-0.2c0.2,0.9,1,1.3,2.2,1.3c0.5,0,0.8-0.1,1.2-0.3
	c0.3-0.2,0.5-0.5,0.5-0.9c0-0.5-0.4-0.9-1.2-1l-1.5-0.3c-0.6-0.1-1-0.3-1.4-0.7s-0.5-0.8-0.5-1.3c0-0.6,0.2-1.1,0.7-1.5
	s1.1-0.6,1.9-0.6c1.5,0,2.5,0.6,2.8,1.8l-1,0.2c-0.3-0.7-0.9-1.1-1.8-1.1c-0.4,0-0.8,0.1-1.1,0.3c-0.3,0.2-0.4,0.5-0.4,0.8
	c0,0.5,0.4,0.8,1.1,1l1.4,0.3c1.4,0.3,2.2,1,2.2,2.1c0,0.6-0.3,1.2-0.8,1.6c-0.5,0.4-1.2,0.6-2.1,0.6C65.4,46.2,64.4,45.6,64,44.2
	L64,44.2z M75.9,44l1,0.2c-0.2,0.6-0.5,1.1-1.1,1.5s-1.2,0.6-1.9,0.6c-1,0-1.7-0.3-2.3-1s-0.9-1.6-0.9-2.7c0-1.1,0.3-2,0.9-2.7
	c0.6-0.7,1.4-1.1,2.3-1c0.9,0,1.7,0.3,2.2,1s0.8,1.6,0.9,2.9h-5.1c0,1.1,0.2,1.8,0.7,2.2s0.9,0.6,1.4,0.6
	C74.9,45.3,75.5,44.9,75.9,44L75.9,44z M75.8,41.8c0-0.4-0.1-0.7-0.2-1.1S75.3,40.2,75,40s-0.6-0.3-1-0.3c-0.5,0-1,0.2-1.4,0.6
	c-0.4,0.4-0.6,0.9-0.6,1.6C71.9,41.8,75.8,41.8,75.8,41.8z M79.3,46.1h-1.1v-7h1v1.6c0.3-0.8,0.7-1.3,1-1.5s0.7-0.3,1-0.3
	c0.1,0,0.3,0,0.4,0v1h-0.2c-0.6,0-1.1,0.2-1.5,0.7s-0.6,1-0.6,1.8L79.3,46.1L79.3,46.1z M88.5,39l-2.4,7h-1.1l-2.5-7h1.2l2,5.7
	l1.9-5.7H88.5z M90.5,36.5v1.2h-1.2v-1.2H90.5L90.5,36.5z M90.5,39v7h-1.1v-7H90.5L90.5,39z M96.2,43.6l1,0.2
	c-0.1,0.8-0.4,1.4-0.9,1.8s-1.1,0.7-1.8,0.7c-1,0-1.7-0.4-2.2-1.1s-0.8-1.6-0.8-2.6c0-1.1,0.3-2,0.8-2.7s1.3-1.1,2.2-1.1
	c0.8,0,1.4,0.2,1.8,0.7s0.8,1,0.9,1.8l-1,0.2c-0.2-1.2-0.7-1.7-1.7-1.7c-0.6,0-1.1,0.3-1.4,0.8c-0.3,0.5-0.5,1.2-0.5,2
	c0,0.9,0.2,1.6,0.5,2.1c0.3,0.5,0.8,0.8,1.4,0.7C95.4,45.4,96,44.8,96.2,43.6L96.2,43.6z M103.4,44l1,0.2c-0.2,0.6-0.6,1.1-1.1,1.5
	c-0.5,0.4-1.2,0.6-1.9,0.6c-1,0-1.7-0.3-2.3-1s-0.9-1.6-0.9-2.7c0-1.1,0.3-2,0.9-2.7c0.6-0.7,1.4-1.1,2.3-1c0.9,0,1.7,0.3,2.2,1
	s0.8,1.6,0.9,2.9h-5.1c0,1.1,0.2,1.8,0.7,2.2s0.9,0.6,1.4,0.6C102.4,45.3,103,44.9,103.4,44L103.4,44z M103.3,41.8
	c0-0.4-0.1-0.7-0.2-1.1c-0.1-0.3-0.3-0.6-0.6-0.8c-0.3-0.2-0.6-0.3-1-0.3c-0.5,0-1,0.2-1.4,0.6c-0.4,0.4-0.6,0.9-0.6,1.6L103.3,41.8
	L103.3,41.8z M105.2,44.2l1-0.2c0.2,0.9,1,1.3,2.2,1.3c0.5,0,0.8-0.1,1.2-0.3c0.3-0.2,0.5-0.5,0.5-0.9c0-0.5-0.4-0.9-1.2-1l-1.5-0.3
	c-0.6-0.1-1-0.3-1.4-0.7s-0.5-0.8-0.5-1.3c0-0.6,0.2-1.1,0.7-1.5s1.1-0.6,1.9-0.6c1.5,0,2.5,0.6,2.8,1.8l-1,0.2
	c-0.3-0.7-0.9-1.1-1.8-1.1c-0.4,0-0.8,0.1-1.1,0.3c-0.3,0.2-0.4,0.5-0.4,0.8c0,0.5,0.4,0.8,1.1,1L109,42c1.4,0.3,2.2,1,2.2,2.1
	c0,0.6-0.3,1.2-0.8,1.6c-0.5,0.4-1.2,0.6-2.1,0.6C106.6,46.2,105.6,45.6,105.2,44.2L105.2,44.2z"/>
<path class="st2" d="M80.4,24v-1.7c0-0.2,0.2-0.4,0.4-0.4c0,0,0,0,0,0h7.6c0.2,0,0.4,0.2,0.4,0.4v1.5c0,0.2-0.2,0.6-0.6,1.1
	l-3.9,5.6c1.5,0,3,0.2,4.3,0.9c0.3,0.2,0.4,0.4,0.4,0.7v1.8c0,0.2-0.3,0.5-0.6,0.4c-2.3-1.2-5.4-1.4-8,0C80.3,34.3,80,34,80,33.8
	v-1.7c0-0.3,0-0.7,0.3-1.2l4.6-6.5h-4C80.6,24.4,80.4,24.2,80.4,24C80.4,24,80.4,24,80.4,24L80.4,24z M53.3,34.5H51
	c-0.2,0-0.4-0.2-0.4-0.4l0-11.8c0-0.2,0.2-0.4,0.4-0.4l2.1,0c0.2,0,0.4,0.2,0.4,0.4v1.5h0c0.6-1.5,1.6-2.2,3-2.2
	c1.4,0,2.3,0.7,3,2.2c0.6-1.5,1.8-2.2,3.2-2.2c1,0,2,0.4,2.7,1.3c0.7,1,0.6,2.4,0.6,3.7l0,7.5c0,0.2-0.2,0.4-0.4,0.4h-2.3
	c-0.2,0-0.4-0.2-0.4-0.4v-6.3c0-0.5,0-1.7-0.1-2.2c-0.2-0.8-0.7-1-1.4-1c-0.6,0-1.1,0.4-1.4,1s-0.2,1.6-0.2,2.3v6.3
	c0,0.2-0.2,0.4-0.4,0.4h-2.3c-0.2,0-0.4-0.2-0.4-0.4l0-6.3c0-1.3,0.2-3.3-1.4-3.3c-1.7,0-1.6,1.9-1.6,3.3v6.3
	C53.7,34.3,53.5,34.5,53.3,34.5L53.3,34.5z M94.4,21.6c3.4,0,5.2,2.9,5.2,6.7c0,3.6-2,6.5-5.2,6.5c-3.3,0-5.2-2.9-5.2-6.6
	C89.3,24.5,91.1,21.6,94.4,21.6z M94.5,24.3c-1.7,0-1.8,2.3-1.8,3.8s0,4.2,1.8,4.2c1.8,0,1.9-2.2,1.9-3.7c0-1,0-2.2-0.3-3.1
	C95.7,24.7,95.2,24.3,94.5,24.3L94.5,24.3z M104.6,34.5h-2.3c-0.2,0-0.4-0.2-0.4-0.4l0-11.8c0-0.2,0.2-0.4,0.4-0.4l2.1,0
	c0.2,0,0.4,0.1,0.4,0.3V24h0c0.6-1.6,1.6-2.4,3.1-2.4c1,0,2,0.4,2.7,1.4c0.6,0.9,0.6,2.5,0.6,3.7v7.5c0,0.2-0.2,0.4-0.4,0.4h-2.3
	c-0.2,0-0.4-0.2-0.4-0.4v-6.4c0-1.3,0.2-3.2-1.4-3.2c-0.6,0-1.1,0.4-1.3,0.9c-0.3,0.7-0.4,1.4-0.4,2.2v6.4
	C105,34.3,104.8,34.5,104.6,34.5L104.6,34.5z M74.6,28.9c0,0.9,0,1.6-0.4,2.4c-0.4,0.6-0.9,1-1.6,1c-0.9,0-1.4-0.7-1.4-1.7
	c0-2,1.8-2.3,3.4-2.3L74.6,28.9L74.6,28.9z M77,34.5c-0.2,0.1-0.4,0.1-0.5,0.1c-0.8-0.6-0.9-0.9-1.3-1.5c-1.3,1.3-2.2,1.7-3.8,1.7
	c-1.9,0-3.5-1.2-3.5-3.6c0-1.9,1-3.1,2.5-3.8c1.3-0.5,3-0.6,4.3-0.8v-0.3c0-0.5,0-1.2-0.3-1.7c-0.3-0.4-0.8-0.6-1.3-0.6
	c-0.9,0-1.7,0.5-1.9,1.4c0,0.2-0.2,0.4-0.4,0.4l-2.2-0.2c-0.2,0-0.4-0.2-0.3-0.5c0.5-2.7,3-3.5,5.2-3.5c1.1,0,2.6,0.3,3.5,1.1
	c1.1,1,1,2.4,1,4v3.6c0,1.1,0.4,1.6,0.9,2.1c0.1,0.2,0.2,0.5,0,0.6L77,34.5L77,34.5L77,34.5z M44.7,28.9c0,0.9,0,1.6-0.4,2.4
	c-0.4,0.6-1,1.1-1.6,1.1c-0.9,0-1.4-0.7-1.4-1.7c0-2,1.8-2.3,3.4-2.3L44.7,28.9L44.7,28.9z M47,34.5c-0.2,0.1-0.4,0.1-0.5,0.1
	c-0.8-0.6-0.9-0.9-1.3-1.5c-1.3,1.3-2.2,1.7-3.8,1.7c-1.9,0-3.5-1.2-3.5-3.6c0-1.9,1-3.1,2.5-3.8c1.3-0.5,3-0.6,4.3-0.8v-0.3
	c0-0.5,0-1.2-0.3-1.7c-0.3-0.4-0.8-0.6-1.3-0.6c-0.9,0-1.7,0.5-1.9,1.4c0,0.2-0.2,0.4-0.4,0.4l-2.2-0.2c-0.2,0-0.4-0.2-0.3-0.5
	c0.5-2.7,3-3.5,5.2-3.5c1.1,0,2.6,0.3,3.5,1.1c1.1,1,1,2.4,1,4v3.6c0,1.1,0.5,1.6,0.9,2.1c0.1,0.2,0.2,0.5,0,0.6L47,34.5L47,34.5
	L47,34.5z"/>
</svg>
