<?xml version="1.0" encoding="utf-8"?>
<!-- Generator: Adobe Illustrator 27.2.0, SVG Export Plug-In . SVG Version: 6.00 Build 0)  -->
<svg version="1.1" id="Layer_1" xmlns="http://www.w3.org/2000/svg" xmlns:xlink="http://www.w3.org/1999/xlink" x="0px" y="0px"
	 viewBox="0 0 120 60" style="enable-background:new 0 0 120 60;" xml:space="preserve">
<style type="text/css">
	.st0{fill:#599636;}
	.st1{fill:#6CAC48;}
	.st2{fill:#C2BFBF;}
	.st3{fill:#FFFFFF;}
</style>
<path class="st0" d="M16.1,5.2l1.1,2c0.2,0.4,0.5,0.7,0.8,1c0.9,0.9,1.8,1.9,2.6,2.9c1.8,2.4,3.1,5.1,4,8c0.5,1.8,0.8,3.6,0.8,5.5
	c0.1,5.5-1.8,10.3-5.6,14.2c-0.6,0.6-1.3,1.2-2,1.7c-0.4,0-0.6-0.3-0.7-0.6c-0.3-0.5-0.5-1-0.6-1.6c-0.1-0.7-0.2-1.3-0.2-2V36
	C16.3,36,16,5.3,16.1,5.2L16.1,5.2z"/>
<path class="st1" d="M16.1,5.1c0-0.1-0.1,0-0.1,0c0,0.4-0.1,0.8-0.4,1.2c-0.3,0.4-0.6,0.7-1,1c-2,1.7-3.5,3.8-4.8,6.1
	c-1.6,3.1-2.5,6.5-2.8,10c-0.1,1.3,0.4,5.7,0.8,7c1.1,3.4,3.1,6.3,5.6,8.8c0.6,0.6,1.3,1.2,2,1.7c0.2,0,0.2-0.2,0.3-0.3
	c0.1-0.3,0.2-0.6,0.2-0.9c0.2-1.1,0.3-2.2,0.4-3.3L16.1,5.1L16.1,5.1z"/>
<path class="st2" d="M17.2,41.9c0-0.5,0.3-0.9,0.6-1.4c-0.3-0.1-0.5-0.3-0.6-0.6c-0.1-0.2-0.2-0.5-0.3-0.7c-0.3-0.9-0.4-1.9-0.5-2.9
	v-0.6c-0.1,0.1-0.1,0.8-0.1,1c-0.1,1-0.2,2-0.4,3c-0.1,0.4-0.1,0.8-0.4,1.2c0,0,0,0.1,0,0.2c0.4,1.2,0.5,2.4,0.6,3.6v0.4
	c0,0.5,0,0.4,0.4,0.6c0.2,0.1,0.4,0.1,0.6,0.2c0.1,0,0.2-0.1,0.2-0.2L17.2,45v-2C17.1,42.6,17.2,42.2,17.2,41.9L17.2,41.9z"/>
<g transform="matrix(1.021124 0 0 1.021124 -4.376266 -1.845946)">
	<path class="st3" d="M37.7,33.7v2.1c0,0.1,0,0.2,0,0.2c0,0.2,0.2,0.4,0.4,0.5c0.2,0.1,0.4,0.1,0.6,0.1c0.1,0,0.2,0.1,0.2,0.2
		c0,0.5,0,0.5-0.5,0.5c-1.1-0.1-2.1-0.1-3.2,0h-0.1c-0.3,0-0.4,0-0.4-0.3c0-0.1,0-0.1,0-0.2c0-0.1,0.1-0.2,0.2-0.2
		c0.2,0,0.4-0.1,0.6-0.1c0.3-0.1,0.5-0.2,0.5-0.5c0-0.3,0-0.6,0-1l0-3.7c0-0.2-0.1-0.4-0.3-0.5c-0.2-0.1-0.5-0.2-0.8-0.3
		c-0.1,0-0.2,0-0.2-0.1c-0.2-0.1-0.2-0.3,0-0.4c0.1,0,0.2-0.1,0.2-0.1c0.8-0.1,1.6-0.3,2.4-0.6c0.2-0.1,0.2,0,0.2,0.1
		c0,0.1,0,0.2,0,0.3c0,0.2,0,0.4,0,0.5c0,0.1,0,0.1,0.1,0.2s0.1,0,0.2,0c0.3-0.2,0.6-0.4,0.9-0.6c0.5-0.2,0.9-0.5,1.5-0.5
		c0.6-0.1,1.2,0.1,1.7,0.5c0.2,0.2,0.4,0.4,0.5,0.6c0.1,0.2,0.2,0.2,0.3,0.1c0.5-0.4,1.1-0.7,1.7-1c0.6-0.3,1.2-0.3,1.9-0.1
		c0.6,0.2,1.1,0.7,1.3,1.3c0.2,0.5,0.3,1,0.3,1.5v3.7c0,0.2,0.1,0.4,0.3,0.5c0.3,0.1,0.5,0.2,0.8,0.2c0.2,0,0.2,0,0.2,0.2
		c0,0.5-0.1,0.5-0.5,0.5c-1.1-0.1-2.2-0.1-3.3,0c-0.2,0-0.2,0-0.2-0.2v-0.1c0-0.4,0-0.4,0.3-0.5l0.4-0.1c0.2-0.1,0.4-0.3,0.4-0.5
		l0-1l0-2.7c0-0.2-0.1-0.5-0.2-0.7c-0.3-0.8-1.1-1.1-1.8-1.1c-0.5,0.1-1,0.3-1.5,0.6c-0.1,0.1-0.2,0.1-0.2,0.3
		c0.1,0.9,0,1.8,0.1,2.6v1.9c0,0.3,0.1,0.5,0.5,0.6l0.6,0.1c0.1,0,0.2,0.1,0.2,0.2v0.1c0,0.4,0,0.4-0.4,0.4c-1.1-0.1-2.2,0-3.3,0
		c-0.4,0-0.4,0-0.4-0.4c0-0.2,0-0.2,0.2-0.3l0.5-0.1c0.4-0.1,0.5-0.2,0.6-0.7l0-0.9l0-2.7c0-0.3-0.1-0.7-0.3-1
		c-0.3-0.5-0.7-0.8-1.3-0.8c-0.6,0-1.1,0.2-1.6,0.5c-0.3,0.2-0.5,0.4-0.5,0.8L37.7,33.7L37.7,33.7z M63.5,33.8v1.9
		c0,0.1,0,0.3,0,0.4c0,0.2,0.1,0.3,0.3,0.4c0.2,0.1,0.5,0.1,0.7,0.1c0.1,0,0.2,0.1,0.2,0.2v0.1c0,0.5-0.1,0.5-0.5,0.5
		c-1-0.1-2.1-0.1-3.1,0l-0.4,0c-0.1,0-0.1,0-0.1-0.1c0-0.2,0-0.4,0-0.6c0-0.1,0.1-0.1,0.2-0.1c0.2,0,0.4-0.1,0.6-0.1
		c0.3-0.1,0.5-0.2,0.5-0.6l0-1.1v-3.4c0-0.2-0.1-0.4-0.3-0.5c-0.2-0.1-0.5-0.2-0.8-0.3c-0.1,0-0.2-0.1-0.2-0.1
		c-0.2-0.1-0.2-0.3,0-0.4c0.1-0.1,0.2-0.1,0.3-0.1c0.9-0.1,1.7-0.3,2.5-0.7c0.1,0,0.1,0,0.2,0.1s0.1,0.2,0,0.3l0,0.6
		c0,0.1,0,0.2,0,0.2c0.1,0.1,0.1-0.1,0.2-0.1c0.4-0.3,0.8-0.6,1.3-0.8c0.4-0.2,0.9-0.3,1.4-0.3c0.9,0.1,1.6,0.5,2,1.3
		c0.2,0.4,0.3,0.9,0.4,1.4l0,1l0,3c0,0.2,0.1,0.4,0.3,0.5c0.2,0.1,0.5,0.1,0.7,0.2c0.2,0,0.2,0.1,0.2,0.3V37c0,0.5-0.1,0.5-0.5,0.5
		c-1-0.1-2-0.1-3.1,0c-0.1,0-0.3,0-0.4,0c-0.1,0-0.1,0-0.2-0.1c0-0.2-0.1-0.4,0-0.5c0-0.1,0.1-0.1,0.2-0.1l0.6-0.1
		c0.2-0.1,0.3-0.2,0.4-0.4l0-0.4l0-2.9c0-0.3,0-0.7-0.1-1c-0.2-0.7-0.7-1.2-1.4-1.3c-0.6-0.1-1.2,0.1-1.7,0.4
		c-0.3,0.2-0.4,0.4-0.4,0.7L63.5,33.8C63.5,33.8,63.5,33.8,63.5,33.8L63.5,33.8z"/>
	<path class="st3" d="M103.5,29.9c-0.2-1-0.5-1.9-1.2-2.7c-0.6-0.7-1.3-1.2-2.1-1.6c-0.9-0.4-1.8-0.5-2.7-0.5c-0.4,0-5.6,0.1-6,0
		c-0.1,0-0.2,0-0.2,0.1c-0.1,0.1-0.1,0.2-0.2,0.3C91,26,91,26,91.4,26c0.3,0.1,0.6,0.1,1,0.2c0.3,0.1,0.5,0.3,0.6,0.6
		c0,0.1,0.1,5,0.1,7.2l-0.1,1.6c0,0.1,0,0.2-0.1,0.4c-0.1,0.2-0.2,0.3-0.3,0.4c-0.2,0.1-0.4,0.1-0.6,0.2c-0.4,0-0.4,0.1-0.5,0.5
		l0,0.2c0,0.2,0,0.2,0.2,0.2l4.1,0l1.6,0l1.1-0.1c1.3-0.2,2.4-0.8,3.3-1.6c0.5-0.5,1-1.1,1.3-1.7c0.4-0.8,0.5-1.6,0.6-2.4
		C103.6,30.9,103.6,30.4,103.5,29.9L103.5,29.9z M101.5,31.9c-0.1,0.9-0.2,1.7-0.7,2.5c-0.6,1-1.4,1.7-2.5,1.9
		c-0.5,0.1-1,0.2-1.5,0.1c-0.4,0-0.7-0.1-1.1-0.2c-0.6-0.2-0.8-0.6-0.8-1.2l0-8.2c0-0.5,0.2-0.6,0.6-0.6c0.5,0,1.1,0,1.6,0
		c0.6,0.1,1.1,0.2,1.7,0.4c0.4,0.2,0.8,0.4,1.1,0.7c0.7,0.6,1.2,1.4,1.5,2.4C101.5,30.3,101.6,31.1,101.5,31.9L101.5,31.9z
		 M114.9,33.2c0-0.1,0-0.2,0-0.2c-0.1-0.8-0.5-1.3-1.1-1.8c-0.4-0.3-0.8-0.5-1.3-0.6c-0.1,0-0.2-0.1-0.2-0.1c0-0.1,0.1-0.1,0.1-0.1
		c0.3-0.1,0.5-0.3,0.8-0.5c0.4-0.4,0.7-0.8,0.8-1.3c0.1-0.3,0.1-0.6,0.1-0.9c0-0.7-0.4-1.4-1-1.8c-0.6-0.5-1.4-0.7-2.1-0.7
		c-1.5,0-3,0-4.4,0c-0.4,0-0.8,0-1.3,0c-0.1,0-0.2,0-0.3,0.1c-0.1,0.2-0.2,0.4-0.3,0.6c0,0.1,0,0.1,0.1,0.2l0.9,0.1
		c0.4,0.1,0.6,0.3,0.7,0.6c0,0.2,0,0.5,0,0.7l0,2.6l0,5.1c0,0.3,0,0.6-0.1,0.9c0,0.2-0.2,0.4-0.4,0.4c-0.3,0.1-0.5,0.2-0.8,0.2
		c-0.2,0-0.3,0.1-0.4,0.2c-0.1,0.1-0.1,0.3-0.1,0.4c0,0.2,0,0.2,0.2,0.2c0.1,0,4.6,0.1,5.5,0c0.5-0.1,1-0.1,1.5-0.3
		c0.9-0.3,1.7-0.7,2.3-1.3c0.5-0.5,0.8-1.2,0.8-2C114.9,33.6,114.9,33.4,114.9,33.2L114.9,33.2z M108.2,27.6l0-1.1
		c0-0.2,0.1-0.3,0.3-0.3c0.3-0.1,0.7,0,1,0c0.3,0,0.6,0.1,1,0.2c0.6,0.2,1.1,0.5,1.3,1.1c0.1,0.3,0.2,0.5,0.2,0.8
		c0,0.4,0,0.8-0.2,1.1c-0.2,0.5-0.6,0.8-1.1,0.9s-2.1,0.1-2.3,0.1c-0.2,0-0.2,0-0.2-0.2v-1.3C108.2,28.4,108.2,28,108.2,27.6
		L108.2,27.6z M112.7,35c-0.2,0.6-0.7,1-1.3,1.3c-0.3,0.1-0.7,0.2-1,0.2c-0.4,0-0.8,0-1.3-0.1c-0.6-0.1-0.8-0.7-0.9-1.1
		c-0.1-0.7,0-1.4,0-1.9v-1.8c0-0.2,0-0.3,0.3-0.3l1.3,0l0.9,0.1c0.6,0.1,1.2,0.4,1.6,0.8c0.4,0.4,0.5,0.8,0.6,1.4
		C112.9,34,112.9,34.5,112.7,35L112.7,35z"/>
	<path class="st3" d="M77.9,30.9l0.4,0.1c0.4,0,0.8-0.1,1-0.7c0.1-0.3,0.1-0.5,0-0.8c-0.1,0-0.1,0.1-0.2,0.1
		c-0.2,0.2-0.4,0.3-0.7,0.3c-0.5,0.1-1,0-1.5-0.1l-0.7-0.2c-0.5-0.2-1-0.2-1.4-0.2c-0.7,0.1-1.4,0.3-2,0.6c-0.7,0.4-1.1,0.9-1.3,1.6
		c-0.1,0.4-0.1,0.9-0.1,1.3c0.1,1,0.7,1.7,1.6,2.1c0.1,0,0.1,0,0.2,0.1c0.1,0.1,0.1,0.1,0,0.2l-0.3,0.2l-0.8,0.5
		c-0.2,0.1-0.2,0.2-0.2,0.4c0.1,0.3,0.2,0.5,0.4,0.7c0.2,0.2,0.4,0.3,0.6,0.4c0.2,0.1,0.2,0.1,0,0.2l-0.8,0.6
		c-0.3,0.2-0.5,0.4-0.7,0.7c-0.3,0.3-0.4,0.8-0.3,1.2c0.1,0.5,0.4,0.9,0.7,1.2c0.4,0.3,0.8,0.6,1.3,0.7c0.8,0.2,1.6,0.2,2.3,0.1
		c1.1-0.2,2.1-0.7,2.9-1.5c0.5-0.6,0.8-1.2,0.9-2c0.1-0.9-0.6-1.8-1.5-2L77,36.4l-2.3-0.2c-0.2,0-0.5-0.1-0.7-0.2
		c-0.3-0.2-0.3-0.5-0.2-0.7c0.1-0.2,0.3-0.2,0.5-0.3l0.4,0c0.9-0.1,1.7-0.5,2.3-1.1c0.3-0.3,0.6-0.7,0.7-1.2c0.2-0.6,0.2-1.2,0-1.8
		C77.7,30.8,77.8,30.8,77.9,30.9L77.9,30.9z M74.6,37.7c0.1,0,0.2,0,0.2,0c0.6,0,1.2,0.1,1.7,0.2c0.2,0.1,0.4,0.1,0.5,0.2
		c0.5,0.3,0.8,0.8,0.7,1.4c-0.1,0.6-0.4,1.1-1,1.3c-0.4,0.2-0.8,0.3-1.2,0.3c-0.2,0-0.3,0-0.4,0c-0.5,0-0.9,0-1.4-0.2
		c-0.3-0.1-0.6-0.3-0.8-0.5c-0.5-0.5-0.7-1.4,0-2.1C73.5,37.9,74,37.6,74.6,37.7z M76.2,33.4c-0.3,0.7-0.9,0.9-1.5,0.8
		c-0.6-0.1-1-0.4-1.3-0.9c-0.4-0.7-0.4-1.4-0.2-2.2c0.2-0.6,0.5-1,1.1-1.1c0.8-0.1,1.5,0.1,1.9,0.9c0.2,0.4,0.3,0.8,0.3,1.5
		C76.4,32.7,76.3,33.1,76.2,33.4L76.2,33.4z M58.9,32.5c-0.1-0.7-0.4-1.4-0.9-2c-0.8-0.8-1.7-1.2-2.8-1.2c-0.9,0-1.8,0.3-2.6,0.8
		c-0.8,0.5-1.4,1.2-1.6,2.1c-0.2,0.8-0.2,1.6,0,2.4c0.5,2.2,2.1,3.1,4.1,3c0.6,0,1.1-0.2,1.7-0.5c0.8-0.4,1.4-1,1.8-1.7
		c0.3-0.6,0.5-1.3,0.4-2.1L58.9,32.5L58.9,32.5z M57,35.5c-0.2,0.6-0.8,1.1-1.4,1.1c-0.6,0.1-1.2-0.1-1.7-0.4
		c-0.4-0.3-0.7-0.6-0.9-1c-0.6-1.1-0.7-2.3-0.4-3.6c0.1-0.4,0.3-0.7,0.6-1c0.5-0.5,1.1-0.6,1.8-0.4c0.6,0.1,1.1,0.5,1.5,1
		s0.6,1.1,0.7,1.8c0.1,0.3,0.1,0.6,0.1,0.8C57.3,34.4,57.2,35,57,35.5L57,35.5z M88.8,32.6c-0.1-0.8-0.4-1.5-1-2.1
		c-0.7-0.8-1.7-1.1-2.8-1.2c-0.9,0-1.8,0.2-2.5,0.7c-0.9,0.5-1.5,1.3-1.7,2.3c-0.3,1.1-0.2,2.2,0.3,3.3c0.4,1,1.2,1.6,2.2,1.8
		c1.1,0.3,2.2,0.2,3.2-0.3c0.9-0.4,1.5-1.1,1.9-2c0.2-0.5,0.3-1.1,0.3-1.8C88.9,33,88.8,32.8,88.8,32.6L88.8,32.6z M86.9,35.3
		c-0.2,0.7-0.7,1.2-1.5,1.3c-0.6,0.1-1.1-0.1-1.6-0.4c-0.4-0.3-0.7-0.7-0.9-1.1c-0.2-0.5-0.4-1-0.4-1.5c-0.1-0.6-0.1-1.3,0.1-1.9
		c0-0.1,0.1-0.3,0.1-0.4c0.4-1,1.2-1.4,2.2-1.2c0.7,0.1,1.2,0.5,1.6,1.1c0.4,0.5,0.5,1.1,0.6,1.8c0,0.3,0.1,0.5,0,0.8
		C87.1,34.4,87.1,34.9,86.9,35.3L86.9,35.3z"/>
</g>
</svg>
