<?xml version="1.0" encoding="utf-8"?>
<!-- Generator: Adobe Illustrator 19.0.0, SVG Export Plug-In . SVG Version: 6.00 Build 0)  -->
<!DOCTYPE svg PUBLIC "-//W3C//DTD SVG 1.1//EN" "http://www.w3.org/Graphics/SVG/1.1/DTD/svg11.dtd">
<svg version="1.1" id="Layer_1" xmlns="http://www.w3.org/2000/svg" xmlns:xlink="http://www.w3.org/1999/xlink" x="0px" y="0px"
	 viewBox="0 0 150 50" style="enable-background:new 0 0 150 50;" xml:space="preserve">
<style type="text/css">
	.st0{fill:#0256A3;stroke:#0256A3;stroke-width:0.5808;}
	.st1{fill:#EE3726;stroke:#EE3726;stroke-width:1.1616;}
	.st2{fill:#0256A3;stroke:#0256A3;stroke-width:1.5437;}
</style>
<path class="st0" d="M103.1,45.7l-0.5,3.1h-3.2l0.5-3.1H103.1z"/>
<path class="st1" d="M7.8,48.6l3-18.2h6.1c1.5,0,2.7,0.1,3.6,0.3c0.9,0.2,1.8,0.7,2.6,1.4c0.9,0.7,1.5,1.6,1.9,2.7
	c0.4,1.1,0.7,2.3,0.7,3.7c0,1.8-0.3,3.4-1,4.8C24,44.8,23.1,46,22,46.8c-1.1,0.8-2.2,1.4-3.2,1.5c-1,0.2-2.5,0.3-4.4,0.3H7.8z
	 M13.9,44.5h1.2c1.3,0,2.2-0.2,2.8-0.5c0.6-0.4,1.1-1,1.6-2c0.4-1,0.7-2.2,0.7-3.6c0-2.7-1-4-3-4h-1.6L13.9,44.5z"/>
<path class="st1" d="M34.7,30.4l-3,18.2h-5.2l3-18.2H34.7z"/>
<path class="st1" d="M48.4,41l1.9,7.6H45l-1.6-6.9h-2.2l-1.1,6.9h-5.2l3-18.2h8c2.2,0,3.8,0.5,4.8,1.4c1,0.9,1.6,2.2,1.6,3.9
	C52.2,38.3,51,40.1,48.4,41z M41.9,37.9h2c2,0,2.9-0.7,2.9-2c0-1.1-0.8-1.7-2.5-1.7h-1.9L41.9,37.9z"/>
<path class="st1" d="M67.2,44.4l-0.7,4.2H53.1l3-18.2h13.1l-0.7,3.9h-7.8l-0.5,2.9h6.6l-0.7,3.9h-6.6L59,44.4H67.2z"/>
<path class="st1" d="M80.1,41.6l4.9,0.6c-0.6,2-1.5,3.6-2.9,4.9C80.7,48.4,79,49,76.9,49c-2.3,0-4.1-0.8-5.4-2.3c-1.3-1.6-2-3.6-2-6
	c0-2.8,0.8-5.3,2.5-7.5c1.7-2.2,3.9-3.3,6.9-3.3c2.1,0,3.8,0.6,5.1,1.9c1.3,1.3,2,3,2,5.2l-5.1,0.4c0-1.1-0.2-1.9-0.5-2.5
	c-0.3-0.5-0.9-0.8-1.7-0.8c-1.3,0-2.3,1-2.8,3c-0.5,2-0.7,3.6-0.7,4.7c0,1.9,0.7,2.8,2.2,2.8c0.7,0,1.3-0.2,1.7-0.7
	C79.4,43.4,79.8,42.7,80.1,41.6z"/>
<path class="st1" d="M96.3,34.6l-2.4,14h-5.3l2.4-14H87l0.7-4.2H101l-0.7,4.2H96.3z"/>
<path class="st0" d="M111.7,44.1l3.1,0.4c-0.4,1.3-1,2.3-1.9,3.1c-0.9,0.8-2,1.2-3.4,1.2c-1.5,0-2.6-0.5-3.5-1.5
	c-0.9-1-1.3-2.3-1.3-3.8c0-1.8,0.5-3.4,1.6-4.8c1.1-1.4,2.5-2.1,4.4-2.1c1.4,0,2.5,0.4,3.3,1.2c0.8,0.8,1.3,1.9,1.3,3.3l-3.3,0.2
	c0-0.7-0.1-1.2-0.3-1.6c-0.2-0.4-0.6-0.5-1.1-0.5c-0.9,0-1.5,0.6-1.8,1.9c-0.3,1.3-0.5,2.3-0.5,3c0,1.2,0.5,1.8,1.4,1.8
	c0.5,0,0.8-0.2,1.1-0.5C111.3,45.3,111.5,44.8,111.7,44.1z"/>
<path class="st0" d="M120.9,48.9c-1.4,0-2.6-0.5-3.6-1.4c-1-0.9-1.5-2.2-1.5-3.9c0-1.9,0.6-3.6,1.7-5c1.1-1.4,2.6-2,4.4-2
	c1.5,0,2.7,0.5,3.6,1.4c0.9,1,1.4,2.2,1.4,3.7c0,2-0.6,3.6-1.7,5C124.2,48.2,122.7,48.9,120.9,48.9z M121,46.2
	c0.6,0,1.1-0.3,1.4-0.8c0.3-0.5,0.6-1.3,0.7-2.2c0.2-1,0.3-1.7,0.3-2c0-0.6-0.1-1.1-0.4-1.4c-0.3-0.3-0.6-0.5-1.1-0.5
	c-0.9,0-1.5,0.6-1.8,1.8c-0.4,1.2-0.5,2.3-0.5,3.2C119.5,45.6,120,46.2,121,46.2z"/>
<path class="st0" d="M142.2,37l-2,11.7H137l1-6.2c0.1-0.6,0.2-1.3,0.4-2c0.1-0.6,0.2-1,0.3-1.3c-0.1,0.2-0.2,0.4-0.3,0.8
	c-0.3,0.7-0.5,1.4-0.8,1.9l-3,6.8h-2.1l-0.8-6.8c-0.1-0.6-0.1-1.2-0.2-1.9c0-0.4,0-0.7-0.1-0.9c-0.2,1.6-0.3,3-0.5,4.2l-0.9,5.5
	h-2.6l1.9-11.7h4.7l0.6,5.2c0,0.4,0.1,0.7,0.1,0.9c0.1-0.3,0.2-0.6,0.3-0.9l2.3-5.2H142.2z"/>
<g>
	<path class="st2" d="M30.9,7.2l-6.2,1.6c-0.2-0.7-0.6-1.3-1.3-1.7c-0.7-0.4-1.5-0.6-2.3-0.6c-1.6,0-2.4,0.5-2.4,1.6
		c0,0.3,0.1,0.6,0.3,0.9c0.2,0.2,0.9,0.6,1.9,0.9l3.8,1.4c1,0.4,1.9,0.9,2.8,1.6c0.9,0.7,1.5,1.4,1.9,2.3c0.4,0.8,0.6,1.7,0.6,2.6
		c0,2.4-1,4.5-2.9,6.1c-1.9,1.6-4.5,2.4-7.7,2.4c-2.7,0-5.1-0.6-7.2-1.7c-2-1.1-3.5-2.8-4.3-5.1l7-1.4c0.6,1.7,2.1,2.6,4.5,2.6
		c1,0,1.7-0.2,2.2-0.5c0.4-0.4,0.7-0.8,0.7-1.2c0-0.3-0.1-0.6-0.3-0.8c-0.2-0.2-0.4-0.4-0.6-0.5c-0.2-0.1-1.1-0.5-2.8-1.1
		c-2.2-0.8-3.8-1.5-4.7-2c-0.9-0.5-1.6-1.2-2.2-2.1c-0.6-0.9-0.9-2.1-0.9-3.3c0-2.2,0.8-4.1,2.4-5.6c1.6-1.5,4.1-2.3,7.5-2.3
		c2.6,0,4.7,0.5,6.6,1.6C29.1,3.9,30.3,5.4,30.9,7.2z"/>
	<path class="st2" d="M39.8,17l-1.5,8.9h-7l4-24.2h8c1.9,0,3.2,0.1,4.1,0.2C48.2,2,49.1,2.4,50,3c0.9,0.6,1.6,1.4,2.2,2.5
		c0.5,1,0.8,2.1,0.8,3.3c0,2.3-0.7,4.2-2.2,5.8c-1.5,1.6-3.6,2.4-6.3,2.4H39.8z M40.6,11.8h1.7c2.5,0,3.8-0.9,3.8-2.6
		c0-1.5-1.1-2.3-3.2-2.3h-1.5L40.6,11.8z"/>
	<path class="st2" d="M64.5,26.4c-2.9,0-5.3-0.9-7.4-2.8c-2.1-1.9-3.2-4.6-3.2-8.1c0-4.1,1.2-7.5,3.5-10.3C59.8,2.4,62.8,1,66.6,1
		c3,0,5.5,1,7.5,3c2,2,2.9,4.6,2.9,7.8c0,4.1-1.2,7.6-3.5,10.4C71.3,25,68.2,26.4,64.5,26.4z M64.5,20.8c1.2,0,2.2-0.5,2.8-1.6
		c0.6-1.1,1.2-2.6,1.5-4.7c0.4-2,0.6-3.4,0.6-4.2c0-1.2-0.3-2.2-0.9-2.8c-0.6-0.6-1.3-1-2.3-1c-1.8,0-3.1,1.3-3.8,3.8
		c-0.7,2.5-1.1,4.7-1.1,6.7C61.5,19.6,62.5,20.8,64.5,20.8z"/>
	<path class="st2" d="M96,15.7l2.6,10.2h-7.2l-2.1-9.2h-2.9l-1.5,9.2H78l4-24.2h10.6c2.9,0,5,0.6,6.4,1.9c1.4,1.3,2.1,3,2.1,5.1
		C101.1,12.1,99.4,14.4,96,15.7z M87.3,11.6H90c2.6,0,3.9-0.9,3.9-2.7c0-1.5-1.1-2.2-3.3-2.2h-2.5L87.3,11.6z"/>
	<path class="st2" d="M115.4,7.2l-3.1,18.6h-7l3.1-18.6h-5.2l0.9-5.6h17.6l-0.9,5.6H115.4z"/>
	<path class="st2" d="M142.2,7.2L136,8.8c-0.2-0.7-0.6-1.3-1.3-1.7c-0.7-0.4-1.5-0.6-2.3-0.6c-1.6,0-2.4,0.5-2.4,1.6
		c0,0.3,0.1,0.6,0.3,0.9c0.2,0.2,0.9,0.6,1.9,0.9l3.8,1.4c1,0.4,1.9,0.9,2.8,1.6c0.9,0.7,1.5,1.4,1.9,2.3c0.4,0.8,0.6,1.7,0.6,2.6
		c0,2.4-1,4.5-2.9,6.1c-1.9,1.6-4.5,2.4-7.7,2.4c-2.7,0-5.1-0.6-7.2-1.7c-2-1.1-3.5-2.8-4.3-5.1l7-1.4c0.6,1.7,2.1,2.6,4.5,2.6
		c1,0,1.7-0.2,2.2-0.5c0.4-0.4,0.7-0.8,0.7-1.2c0-0.3-0.1-0.6-0.3-0.8c-0.2-0.2-0.4-0.4-0.5-0.5c-0.2-0.1-1.1-0.5-2.8-1.1
		c-2.2-0.8-3.8-1.5-4.7-2c-0.9-0.5-1.6-1.2-2.2-2.1c-0.6-0.9-0.9-2.1-0.9-3.3c0-2.2,0.8-4.1,2.4-5.6c1.6-1.5,4.1-2.3,7.5-2.3
		c2.6,0,4.7,0.5,6.6,1.6C140.4,3.9,141.6,5.4,142.2,7.2z"/>
</g>
</svg>
